Patient4_TMGait_0pt8_01_left_12_EMG.mot
version=1
nRows=30
nColumns=33
inDegrees=no
endheader
time	1LAddLong	2LGlutMax	3LGlutMed	4LIliopsoas	5LSemiMemb	6LBicFemLong	7LRecFem	8LVastMed	9LVastLat	10LGasMed	11LTibAnt	12lTibPost	13LPeroneusLong	14LSol	15LExtDigLong	16LFlexDigLong	17RAddLong	18RGlutMax	19RGlutMed	20RIliopsoas	21RSemiMemb	22RBicFemLong	23RRecFem	24RVastMed	25RVastLat	26RGasMed	27RTibAnt	28RTibPost	29RPeroneusLong	30RSol	31RExtDigLong	32RFlexDigLong
13.818	-0.003662	0.3627	-0.1622	0.023804	0.000305	0.070496	-0.035248	0.00412	0.19043	-0.096741	-0.043793	0.006409	0.070343	-0.082703	-0.12817	-0.001526	0.00946	-0.72769	1.1118	0.009308	0.006104	-0.054016	-0.039978	0.44907	0.31311	0.016022	0.25345	0.002899	-0.50308	-0.17899	-0.002136	-0.011902
13.819	0.00061	0.42297	-0.11536	-0.005188	-0.037689	0.081787	-0.046844	0.013123	0.1831	-0.03067	-0.028839	-0.006256	0.083771	-0.071259	-0.013885	-0.013885	0.002594	-0.73822	1.2836	0.14191	-0.003967	-0.060272	0.23361	0.29831	0.13199	0.000458	0.5043	0.005188	-0.78323	0.019226	-0.001526	-0.003662
13.82	-0.00061	0.48553	-0.06897	-0.025177	-0.044861	0.048065	-0.03891	0.009308	0.17609	0.00412	-0.014496	-0.005341	0.067444	-0.064087	0.064545	-0.003052	0.013275	-0.70709	-0.14206	0.1593	-0.00946	-0.059509	0.54703	0.41611	0.54962	-0.010223	0.74707	0.000153	-0.98648	-0.06012	-0.011597	-0.016785
13.821	-0.003204	0.52963	0.024414	-0.011749	-0.040588	0.02121	-0.031891	0.010681	0.17456	0.013733	-0.007935	0.014191	0.052948	-0.048218	0.085144	0.00061	0.00946	-0.75684	-0.88592	0.018463	-0.00351	-0.046539	0.63767	0.91965	0.15091	0.010376	0.74951	0.002594	-0.063324	-0.39749	-0.003662	-0.011139
13.822	0.008087	0.54291	0.13977	0.007935	-0.063019	0.069275	-0.053558	0.016785	0.18082	0.028687	-0.00061	0.001831	0.053406	-0.06134	0.076904	0.005646	-0.009155	-0.75287	-0.40268	-0.091553	0.007019	-0.024719	0.50079	1.096	-0.99701	0.024414	-0.47058	-0.001373	0.68085	-0.57342	-0.003815	-0.005035
13.823	-0.001221	0.51773	0.13886	0.006104	0.029144	0.054321	-0.030365	0.01358	0.17578	0.045013	-0.00061	-0.004425	0.068512	-0.088348	0.063782	0.006409	-0.020447	-0.73029	0.068359	-0.041199	0.019379	0.006866	0.11261	0.47043	-1.4157	0.015411	-0.52033	0.001373	0.64377	-0.3331	-0.004883	0.002136
13.824	-0.001678	0.47516	0.065002	0.018768	0.005798	0.077972	-0.023651	0.012817	0.18158	0.039368	-0.00473	-0.001221	0.039978	-0.066833	0.058289	0.002899	-0.009155	-0.81177	-0.028534	0.015411	0.006561	-0.007324	-0.13962	0.079651	-0.71976	-0.002594	0.21072	-0.000305	-0.31265	-0.006714	-0.002747	-0.010529
13.825	-0.00412	0.4158	0.13565	-0.003204	-0.08728	0.058441	-0.037384	0.015717	0.18768	0.022583	-0.000763	-0.007782	0.03479	-0.080261	0.041199	0.003204	-0.026855	-0.85159	-0.36301	0.050049	0.013428	-0.009155	-0.2684	0.19836	-0.042725	-0.004425	0.53848	0	-1.3445	-0.096893	-0.002136	-0.015869
13.826	-0.016022	0.37186	0.12619	-0.009766	-0.006561	0.039825	-0.046539	0.012817	0.15808	0.002289	0.00351	-0.007477	0.011597	-0.10651	0.031891	0.007782	-0.023499	-0.83649	-0.41565	0.023651	0.01358	-0.016327	-0.57785	0.023804	0.42694	0.014343	0.35706	-0.00412	-0.327	-0.086212	-0.003967	0.001068
13.827	-0.004883	0.28168	0.055389	0.008698	0.089417	0.054932	-0.044708	0.015717	0.13992	-0.02655	0.009918	-0.006561	0.009308	-0.096741	0.028534	0	0.00351	-0.82245	0.23025	0.093994	-0.005646	-0.041809	-0.80719	0.025635	0.61768	0.015564	-0.2124	-0.000916	0.95093	-0.002289	-0.001221	-0.005188
13.828	-0.010223	0.2182	-0.026245	0.012054	0.071411	0.054169	-0.061951	0.003967	0.1358	-0.034485	0.003662	-0.004883	0.012512	-0.08194	0.044098	0.000763	0.009308	-0.92316	0.48157	0.16129	-0.008087	-0.042572	-0.57754	-0.010681	0.41229	-0.005646	-0.23346	0.000153	0.36011	0.088043	0.003204	-0.007782
13.829	-0.01358	0.19623	-0.092773	0.027313	0.039825	0.054474	-0.075378	0	0.13092	-0.032349	0.002899	0.001678	0.00351	-0.054932	0.025635	0.010681	0.018158	-0.91583	0.3566	0.1355	-0.010986	-0.031128	-0.27786	-0.26367	0.1889	-0.007935	-0.29175	0.000763	-0.007324	0.027008	-0.002136	-0.000916
13.83	0.001831	0.15717	-0.10086	0.018616	0.055542	0.016632	-0.080414	0.018158	0.12802	-0.026398	0.000458	-0.006409	0.016174	-0.033264	0.017853	0.015106	0.009766	-0.85403	0.48325	0.004883	-0.002899	-0.039215	0.033722	-0.52826	-0.014496	0.019379	-1.1145	0.003357	0.71564	-0.028992	0.001526	-0.003357
13.831	-0.002289	0.12283	0.076294	0.003357	-0.011139	-0.016632	-0.06897	0.006409	0.12222	-0.054016	-0.017548	0	0.031128	0.000763	0.013275	0.010681	0.000763	-0.85312	0.383	-0.1239	0.012665	-0.032043	-0.20462	-0.56625	-0.15762	0.036774	-1.1583	0.003662	0.99945	-0.25253	-0.001373	0.008392
13.832	0.01236	0.10178	-0.017853	0.013123	-0.013123	0.033569	-0.10422	0.0177	0.13046	-0.043945	-0.020752	-0.001373	0.005035	-0.032959	0.036316	0.014801	0.018921	-0.88791	-0.23285	-0.099335	0.006714	-0.040894	-0.18646	-0.57175	-0.56625	0.025482	-0.35095	0.002136	0.54031	-0.19409	0.000305	-0.000305
13.833	0.005951	0.056458	-0.007019	0.008392	-0.014954	0.074768	-0.10376	0.016327	0.12344	-0.04364	-0.032196	-0.006104	-0.017853	-0.026855	0.016479	0.013733	0.025787	-0.95642	-0.24933	-0.031891	-0.011749	-0.033722	-0.047302	-0.21255	-0.634	0.010529	-0.12863	0.005798	-0.019226	-0.13962	-0.004272	-0.006104
13.834	-0.011444	0.1004	-0.013733	0.008545	0.028839	0.10437	-0.090332	0.010986	0.12253	-0.043945	-0.079651	0.003815	0.027771	-0.073853	-0.005188	0.022736	0.001068	-0.94696	-0.24521	0.11246	-0.062561	0.023346	-0.12619	-0.10071	-0.19241	0.014038	-0.14786	0.000305	0.018311	0.093689	-0.003815	0.000305
13.835	-0.016022	0.074005	-0.032959	0.01236	0.019073	0.11292	-0.082092	0.023956	0.12619	-0.040894	-0.096741	-0.003662	0.039978	-0.081177	-0.015717	0.007324	-0.010071	-1.0197	-0.33936	0.15518	-0.035706	0.04364	0.068817	-0.12955	0.084839	0.010986	0.47073	0.001526	0.059662	0.044556	-0.003052	-0.001526
13.836	-0.033722	0.020447	0.02533	0.007629	-0.048065	0.070801	-0.1091	0.018005	0.11826	-0.040894	-0.048065	-0.003967	0.013733	-0.057526	0.00824	0.016022	-0.009766	-1.0376	-0.25406	0.071716	0.065918	0.018005	0.024872	-0.22064	0.075836	0.014191	0.71167	-0.010376	-0.15884	0.067291	-0.003204	-0.012665
13.837	-0.015717	0.031281	-0.012054	0.011597	-0.044098	0.017395	-0.12863	0.016174	0.11353	-0.05661	0.089111	-0.00412	0.002441	-0.070801	0.060883	0.005798	-0.005951	-0.99136	0.23239	-0.064697	0.032501	-0.010681	-0.035706	-0.28793	0.062714	0.016174	0.052643	0.002747	0.077667	0.027466	-0.001678	-0.01709
13.838	0.006256	0.021515	-0.086517	-0.014343	0.011292	-0.025482	-0.11063	-0.003357	0.1152	-0.068665	0.15289	-0.001984	0.023346	-0.062561	0.029449	0.004272	0.009003	-0.89249	-0.20584	-0.16449	0.001984	0.005798	-0.34927	-0.25085	0.055084	0.018616	-0.51544	-0.002136	0.73181	0.21316	-0.001068	-0.009003
13.839	0.019073	-0.046844	-0.12634	0.005188	0.032501	0.018311	-0.12436	-0.000916	0.11734	-0.063934	0.08606	-0.00473	0.027466	-0.037842	0.017395	0.009155	-0.012817	-0.81284	-0.45517	-0.14389	0.012207	0.009155	-0.58197	-0.085144	-0.030975	0.010986	-0.41916	-0.006561	0.73959	0.38849	0.003204	-0.014648
13.84	0.029144	-0.057831	-0.17136	0.00824	0.026093	0.037079	-0.11932	0.002136	0.10651	-0.065613	0.039063	-0.003815	0.025177	-0.041656	-0.002747	0.00473	-0.036926	-0.71976	-0.39581	-0.015106	0.023041	0.013275	-0.65201	-0.043488	-0.32623	-0.009003	-0.17425	0.002594	0.26001	0.42221	-0.000458	-0.011902
13.841	0.020752	-0.056	-0.1384	-0.016785	0.050354	0.057526	-0.11185	0.00061	0.11246	-0.055847	0.015564	-0.003815	-0.007935	-0.053253	-0.006714	0.004272	-0.008087	-0.73242	-0.044556	0.10376	0.007019	-0.022125	-0.38132	0.072327	-0.5011	-0.003815	-0.15121	0.006104	-0.028534	0.32913	-0.002747	-0.011292
13.842	0.013733	-0.057068	-0.015717	-0.000763	0.057373	0.06546	-0.10071	-0.001526	0.093384	-0.06073	0.052948	-0.003204	-0.010223	-0.059662	0.034943	0.007019	0.005646	-0.73105	0.62698	0.10284	-0.002136	-0.000458	-0.1712	0.059509	-0.6076	0.004272	0.059204	0.003204	0.00061	0.17563	-0.001984	-0.006256
13.843	0.009613	-0.037994	0.055847	-0.013733	0.029297	0.065308	-0.11383	0.008698	0.10773	-0.054321	0.081635	-0.001678	-0.00946	-0.093384	0.007019	0.007935	-0.008087	-0.72098	0.20294	0.17212	0.000153	0.017548	-0.43335	0.010071	-0.10834	0.014954	0.67658	-0.000458	0.10025	0.10788	-0.001373	-0.007629
13.844	0.005951	-0.061188	0.047455	-0.006409	0.013428	0.10651	-0.10696	0.00412	0.07843	-0.062714	0.022278	0.001221	0.049133	-0.095367	-0.046692	0.012665	-0.007477	-0.67429	-0.15564	0.075989	0.001526	0.009155	-0.30624	-0.035553	0.34668	0.010071	0.64697	0.003662	0.11292	0.15106	-0.001068	-0.013123
13.845	0.010071	-0.024872	-0.077515	0.001068	-0.000458	0.10025	-0.11688	0.011139	0.06073	-0.057526	-0.027771	-0.000305	0.050964	-0.06073	-0.055237	0.005646	0.01297	-0.6279	0.006104	-0.10086	-0.023651	-0.030823	0.090332	-0.11581	0.22675	0.003662	-0.40588	0.002747	0.039063	-0.023804	-0.004425	-0.004578
13.846	0.00351	0.010986	-0.13977	0.007477	-0.006866	0.093079	-0.11169	0.007019	0.066681	-0.031891	0.042877	0.002747	-0.028687	-0.025635	-0.013428	0.001221	0.019531	-0.54153	0.1651	-0.13351	-0.031433	-0.017395	0.27527	-0.18662	0.008698	0.008545	-0.95169	-0.001221	0.036316	-0.067139	-0.004425	-0.010223
13.847	0.001221	0.017395	-0.097198	0.006256	-0.000305	0.091858	-0.082245	0.006104	0.072021	-0.040283	0.022583	0.00946	-0.058441	-0.040741	-0.004425	0.011597	0.012207	-0.55695	0.18845	-0.03479	-0.019531	0.004425	0.37796	-0.2684	-0.066071	0.012207	-0.2446	0.00351	0.22049	-0.036163	-0.003052	-0.009003
